# xmcd
#
# Track frame offsets:
#	150
#	17996
#	39462
#	52922
#	74064
#	99375
#	116378
#	135081
#	157111
#	177055
#	198637
#
# Disc length: 2934 seconds
#
# Revision: 0
# Processed by: cddbd v1.5.2PL0 Copyright (c) Steve Scherf et al.
# Submitted via: dBpowerAMP V4.0
#
DISCID=900b740b
DTITLE=Steve Granh and Mattias Malm - Final Route
DYEAR=2010
DGENRE=
TTITLE0=Blues for Memphis 
TTITLE1=Final Route 
TTITLE2=Good Man Blues 
TTITLE3=Everlastin' Blues 
TTITLE4=Swampland Bay 
TTITLE5=Mornin' Light Showed Up Again 
TTITLE6=Hang Over Blues 
TTITLE7=Unemployed Man Blues 
TTITLE8=Lonesome In A Crowd 
TTITLE9=Worn Out Man 
TTITLE10=I Finaly Made It To That River 
EXTD=
EXTT0=
EXTT1=
EXTT2=
EXTT3=
EXTT4=
EXTT5=
EXTT6=
EXTT7=
EXTT8=
EXTT9=
EXTT10=
PLAYORDER=
